<?xml version="1.0" encoding="iso-8859-1"?>
<!-- Generator: Adobe Illustrator 16.0.3, SVG Export Plug-In . SVG Version: 6.00 Build 0)  -->
<!DOCTYPE svg PUBLIC "-//W3C//DTD SVG 1.1//EN" "http://www.w3.org/Graphics/SVG/1.1/DTD/svg11.dtd">
<svg version="1.1" id="Livello_1" xmlns="http://www.w3.org/2000/svg" xmlns:xlink="http://www.w3.org/1999/xlink" x="0px" y="0px"
	 width="226.772px" height="25.963px" viewBox="0 0 226.772 25.963" style="enable-background:new 0 0 226.772 25.963;"
	 xml:space="preserve">
<g>
	<path style="fill-rule:evenodd;clip-rule:evenodd;fill:#003D7C;" d="M38.046,0.119c0,0-4.342,16.788-6.514,25.198
		c-3.107,0-9.325,0.002-9.325,0.002l4.183-15.152h-0.067l-9.254,9.937L13.022,9.962L9.391,25.316L0,25.318l6.51-25.2h11.175
		l2.535,8.192l6.721-8.192H38.046z"/>
	<path style="fill-rule:evenodd;clip-rule:evenodd;fill:#003D7C;" d="M54.153,17.771L54.017,7.15l-5.896,10.622H54.153z
		 M64.711,25.318L54.43,25.316l-0.206-4.596l-7.747,0.002l-2.741,4.594l-10.146,0.002l16.794-25.2h11.313l3.014,25.198V25.318z"/>
	<path style="fill-rule:evenodd;clip-rule:evenodd;fill:#003D7C;" d="M81.169,0.119c0,0-2.606,9.908-3.908,14.842
		c-0.479,1.613-0.87,4.014,0.821,4.523c1.337,0.418,3.411,0.107,4.253-0.477c1.579-1.086,4.684-14.55,5.826-18.889
		c3.338,0,6.675-0.029,10.005-0.029c0,0.023,0,0.002,0,0.029c-2.803,8.85-2.881,20.389-11.034,23.961
		c-1.817,0.793-3.847,1.184-6.1,1.578c-5.954,1.045-12.241-0.629-13.847-4.529c-0.896-2.162-0.155-5.105,0.412-6.988
		C68.808,9.458,71.23,0.119,71.23,0.119V0.09L81.169,0.119z"/>
	<path style="fill-rule:evenodd;clip-rule:evenodd;fill:#003D7C;" d="M112.705,3.996c-0.601,2.219-1.19,4.431-1.785,6.65
		c3.546,0.067,7.067,0.266,8.09-2.196C120.643,4.53,116.164,3.931,112.705,3.996 M116.537,0.087c2.365,0,5.239-0.298,7.269,0.206
		c1.555,0.387,2.742,1.023,3.704,1.988c1.675,1.68,2.636,5.353,1.1,7.953c-1.214,2.052-3.416,3.124-6.031,3.77
		c-0.979,0.24-3.482-0.045-4.116,0.617c4.164,1.225,7.815,7.271,10.007,10.695h-10.833c0,0-4.164-10.383-7.879-10.355
		c0,0-1.832,6.955-2.742,10.355c-3.747,0.006-7.497,0-11.243,0c0,0,4.526-16.815,6.787-25.199
		C102.559,0.118,111.878,0.09,116.537,0.087"/>
	<path style="fill-rule:evenodd;clip-rule:evenodd;fill:#003D7C;" d="M158.976,5.299c-3.844-0.003-7.68-0.003-11.52-0.001
		c-0.43,1.713-0.866,3.429-1.3,5.142c3.813,0,7.632,0,11.448,0c-0.002,0.018-0.002,0.047-0.002,0.069
		c-0.434,1.575-0.867,3.223-1.304,4.801c-3.837,0.02-7.678-0.027-11.515,0c-0.479,1.824-0.957,3.654-1.443,5.482
		c3.817-0.002,7.635,0,11.45-0.002l-1.164,4.525h-22.966c0,0,4.525-16.814,6.789-25.198h22.894
		C160.344,0.119,159.427,3.56,158.976,5.299"/>
	<path style="fill-rule:evenodd;clip-rule:evenodd;fill:#003D7C;" d="M166.035,0.088c0,0-4.522,16.82-6.787,25.228
		c6.605,0,13.208,0.002,19.812,0c0.413-1.504,0.825-3.02,1.231-4.525c-2.805,0-5.616-0.002-8.429,0
		c3.593-13.393,5.555-20.673,5.555-20.673h-4.589L166.035,0.088z"/>
	<path style="fill-rule:evenodd;clip-rule:evenodd;fill:#003D7C;" d="M194.016,0.094c0-0.029,4.073,0.024,7.869,0.024
		c0,0-3.704,13.77-5.551,20.674c2.814,0,5.619,0,8.432,0l-1.234,4.525h-19.813l6.789-25.229L194.016,0.094z"/>
	<path style="fill-rule:evenodd;clip-rule:evenodd;fill:#003D7C;" d="M219.793,0.086c0-0.029,6.979,0.031,6.979,0.031l-6.786,25.199
		h-11.38c0-0.072,4.522-16.89,6.785-25.228L219.793,0.086z"/>
</g>
</svg>
